<svg width="205" height="59" viewBox="0 0 205 59" fill="none" xmlns="http://www.w3.org/2000/svg">
<path d="M203.096 52.1958C203.096 55.3399 200.496 57.8868 197.28 57.8868H6.95796C3.74368 57.8868 1.13463 55.3399 1.13463 52.1958V6.81166C1.13463 3.66897 3.74368 1.1132 6.95796 1.1132H197.279C200.496 1.1132 203.095 3.66897 203.095 6.81166L203.096 52.1958Z" fill="#1E20DC"/>
<path d="M196.667 1.18185C200.169 1.18185 203.019 3.96038 203.019 7.37501V51.625C203.019 55.0396 200.169 57.8182 196.667 57.8182H7.5641C4.06192 57.8182 1.21215 55.0396 1.21215 51.625V7.37501C1.21215 3.96038 4.06192 1.18185 7.5641 1.18185H196.667ZM196.667 5.4802e-06H7.5641C3.40574 5.4802e-06 0 3.3206 0 7.37501V51.625C0 55.6794 3.40574 59 7.5641 59H196.667C200.825 59 204.231 55.6794 204.231 51.625V7.37501C204.231 3.3206 200.825 5.4802e-06 196.667 5.4802e-06Z" fill="#1E20DC"/>
<path d="M47.4252 28.4C47.3827 23.7913 51.2956 21.5491 51.4745 21.4448C49.2585 18.2946 45.8237 17.8642 44.6167 17.8299C41.7319 17.5339 38.9336 19.5129 37.464 19.5129C35.9652 19.5129 33.7022 17.8585 31.2632 17.9071C28.1247 17.9543 25.1885 19.726 23.5782 22.4772C20.2549 28.0868 22.7334 36.3304 25.9174 40.8648C27.5102 43.0855 29.3713 45.565 31.8073 45.4778C34.1906 45.382 35.0808 43.9964 37.9568 43.9964C40.8064 43.9964 41.6424 45.4778 44.1268 45.422C46.6846 45.382 48.2949 43.1913 49.8319 40.9506C51.6725 38.4053 52.4117 35.8986 52.441 35.7699C52.3809 35.7499 47.4736 33.9239 47.4252 28.4Z" fill="white"/>
<path d="M42.7321 14.847C44.0139 13.2841 44.8909 11.1578 44.6475 8.99998C42.7922 9.08006 40.472 10.2512 39.136 11.7798C37.9539 13.1268 36.8979 15.3346 37.1707 17.4109C39.2548 17.5625 41.3945 16.3856 42.7321 14.847Z" fill="white"/>
<path d="M81.9154 45.1589H78.5847L76.7602 39.5693H70.4186L68.6807 45.1589H65.438L71.721 26.1292H75.6016L81.9154 45.1589ZM76.2103 37.2242L74.5603 32.2551C74.3858 31.7475 74.0588 30.552 73.5762 28.6702H73.5176C73.3255 29.4796 73.016 30.675 72.5907 32.2551L70.9701 37.2242H76.2103V37.2242Z" fill="white"/>
<path d="M98.073 38.1293C98.073 40.463 97.4262 42.3076 96.1327 43.6618C94.974 44.8672 93.5353 45.4692 91.8179 45.4692C89.9641 45.4692 88.6324 44.82 87.8214 43.5216H87.7627V50.75H84.6359V35.9544C84.6359 34.4873 84.5963 32.9816 84.5201 31.4372H87.27L87.4445 33.6122H87.5032C88.5459 31.9734 90.1284 31.1555 92.252 31.1555C93.9122 31.1555 95.2982 31.7947 96.4069 33.0745C97.5186 34.3557 98.073 36.0402 98.073 38.1293ZM94.8875 38.2409C94.8875 36.9053 94.5795 35.8043 93.9606 34.9377C93.2845 34.034 92.3767 33.5821 91.2386 33.5821C90.4672 33.5821 89.7661 33.8338 89.1399 34.33C88.5122 34.8305 88.1015 35.4839 87.9094 36.2933C87.8126 36.6708 87.7642 36.9797 87.7642 37.2228V39.5107C87.7642 40.5088 88.0781 41.351 88.7058 42.0388C89.3335 42.7266 90.1489 43.0698 91.1521 43.0698C92.3298 43.0698 93.2464 42.6265 93.902 41.7428C94.559 40.8577 94.8875 39.6908 94.8875 38.2409Z" fill="white"/>
<path d="M114.26 38.1293C114.26 40.463 113.613 42.3076 112.318 43.6618C111.161 44.8672 109.722 45.4692 108.005 45.4692C106.151 45.4692 104.819 44.82 104.01 43.5216H103.951V50.75H100.824V35.9544C100.824 34.4873 100.785 32.9816 100.708 31.4372H103.458L103.633 33.6122H103.692C104.733 31.9734 106.315 31.1555 108.44 31.1555C110.099 31.1555 111.485 31.7947 112.597 33.0745C113.704 34.3557 114.26 36.0402 114.26 38.1293ZM111.074 38.2409C111.074 36.9053 110.765 35.8043 110.146 34.9377C109.47 34.034 108.565 33.5821 107.426 33.5821C106.653 33.5821 105.953 33.8338 105.325 34.33C104.698 34.8305 104.288 35.4839 104.096 36.2933C104.001 36.6708 103.951 36.9797 103.951 37.2228V39.5107C103.951 40.5088 104.265 41.351 104.89 42.0388C105.517 42.7252 106.333 43.0698 107.339 43.0698C108.517 43.0698 109.433 42.6265 110.089 41.7428C110.746 40.8577 111.074 39.6908 111.074 38.2409Z" fill="white"/>
<path d="M132.358 39.8224C132.358 41.4411 131.781 42.758 130.624 43.7747C129.353 44.8858 127.583 45.4406 125.308 45.4406C123.208 45.4406 121.524 45.0459 120.25 44.2552L120.974 41.7142C122.347 42.5235 123.853 42.9296 125.494 42.9296C126.672 42.9296 127.588 42.6694 128.247 42.1517C128.902 41.6341 129.23 40.9392 129.23 40.0726C129.23 39.3004 128.96 38.6498 128.419 38.1222C127.88 37.5945 126.981 37.1041 125.726 36.6508C122.309 35.4081 120.602 33.5878 120.602 31.1941C120.602 29.6298 121.2 28.3471 122.398 27.349C123.592 26.3495 125.185 25.8504 127.176 25.8504C128.952 25.8504 130.428 26.1521 131.605 26.7541L130.824 29.2394C129.724 28.656 128.48 28.3643 127.088 28.3643C125.988 28.3643 125.129 28.6288 124.513 29.155C123.992 29.6255 123.731 30.1989 123.731 30.8781C123.731 31.6302 124.029 32.2523 124.627 32.7413C125.148 33.1932 126.094 33.6822 127.467 34.2099C129.146 34.8691 130.379 35.6398 131.173 36.5235C131.963 37.4043 132.358 38.5068 132.358 39.8224Z" fill="white"/>
<path d="M142.696 33.7251H139.249V40.3872C139.249 42.0816 139.857 42.9282 141.074 42.9282C141.633 42.9282 142.096 42.881 142.463 42.7866L142.549 45.1017C141.933 45.3262 141.122 45.4391 140.118 45.4391C138.883 45.4391 137.918 45.0717 137.221 44.3381C136.527 43.6031 136.178 42.3705 136.178 40.6388V33.7222H134.125V31.4343H136.178V28.9219L139.249 28.0182V31.4343H142.696V33.7251Z" fill="white"/>
<path d="M158.246 38.1851C158.246 40.2942 157.627 42.0259 156.393 43.3801C155.098 44.7742 153.379 45.4692 151.236 45.4692C149.171 45.4692 147.527 44.8014 146.301 43.4659C145.075 42.1303 144.462 40.4444 144.462 38.4124C144.462 36.2861 145.092 34.5445 146.358 33.1903C147.621 31.8347 149.325 31.1569 151.468 31.1569C153.533 31.1569 155.194 31.8247 156.448 33.1617C157.648 34.4587 158.246 36.1331 158.246 38.1851ZM155.002 38.2837C155.002 37.0182 154.725 35.9329 154.163 35.0278C153.508 33.9324 152.571 33.3862 151.356 33.3862C150.099 33.3862 149.145 33.9339 148.489 35.0278C147.927 35.9344 147.65 37.0368 147.65 38.3409C147.65 39.6064 147.927 40.6918 148.489 41.5955C149.165 42.6908 150.11 43.2371 151.328 43.2371C152.522 43.2371 153.459 42.6794 154.135 41.5669C154.712 40.6446 155.002 39.5478 155.002 38.2837Z" fill="white"/>
<path d="M168.41 34.1184C168.1 34.0626 167.77 34.034 167.424 34.034C166.324 34.034 165.474 34.4387 164.875 35.2494C164.355 35.9644 164.094 36.8681 164.094 37.9592V45.1589H160.968L160.998 35.7585C160.998 34.177 160.958 32.737 160.88 31.4386H163.604L163.718 34.064H163.805C164.135 33.1617 164.655 32.4353 165.368 31.8905C166.065 31.4 166.817 31.1555 167.628 31.1555C167.917 31.1555 168.178 31.1755 168.41 31.2113V34.1184Z" fill="white"/>
<path d="M182.394 37.6488C182.394 38.1951 182.357 38.6555 182.28 39.0316H172.899C172.936 40.3872 173.389 41.4239 174.26 42.1389C175.051 42.778 176.073 43.0983 177.328 43.0983C178.717 43.0983 179.984 42.8824 181.124 42.4492L181.614 44.5655C180.282 45.1317 178.71 45.4134 176.896 45.4134C174.713 45.4134 173 44.7871 171.754 43.5359C170.51 42.2847 169.887 40.6045 169.887 38.4968C169.887 36.4277 170.466 34.7046 171.626 33.3304C172.841 31.8633 174.482 31.1297 176.547 31.1297C178.575 31.1297 180.111 31.8633 181.153 33.3304C181.979 34.4958 182.394 35.9372 182.394 37.6488ZM179.412 36.8581C179.433 35.9544 179.229 35.1736 178.805 34.5144C178.264 33.6665 177.432 33.2432 176.313 33.2432C175.291 33.2432 174.46 33.6565 173.825 34.4858C173.304 35.145 172.995 35.9358 172.899 36.8567H179.412V36.8581Z" fill="white"/>
<path d="M75.1763 14.4224C75.1763 16.1054 74.6586 17.3723 73.6246 18.2231C72.667 19.0082 71.3059 19.4014 69.5431 19.4014C68.669 19.4014 67.921 19.3642 67.2948 19.2899V10.0939C68.1117 9.96524 68.9916 9.89946 69.942 9.89946C71.6213 9.89946 72.8869 10.2555 73.7405 10.9676C74.6967 11.7727 75.1763 12.9238 75.1763 14.4224ZM73.5557 14.4638C73.5557 13.3728 73.2595 12.5363 72.667 11.9529C72.0744 11.3709 71.2091 11.0792 70.0696 11.0792C69.5856 11.0792 69.1735 11.1106 68.8318 11.1764V18.1674C69.021 18.196 69.3671 18.2088 69.8701 18.2088C71.0464 18.2088 71.9542 17.89 72.5936 17.2522C73.2331 16.6145 73.5557 15.685 73.5557 14.4638Z" fill="white"/>
<path d="M83.7692 15.8923C83.7692 16.929 83.4656 17.7784 82.8584 18.4448C82.2219 19.1297 81.3786 19.4715 80.3256 19.4715C79.3107 19.4715 78.5026 19.144 77.8998 18.4862C77.2985 17.8299 76.9979 17.002 76.9979 16.0039C76.9979 14.96 77.3073 14.1035 77.9292 13.4385C78.551 12.7736 79.387 12.4404 80.44 12.4404C81.4549 12.4404 82.2703 12.7679 82.8878 13.4242C83.4744 14.062 83.7692 14.8856 83.7692 15.8923ZM82.175 15.9409C82.175 15.3189 82.0371 14.7855 81.7629 14.3408C81.4402 13.8032 80.9812 13.5343 80.3843 13.5343C79.7668 13.5343 79.2975 13.8032 78.9748 14.3408C78.6991 14.7855 78.5627 15.3275 78.5627 15.9681C78.5627 16.5901 78.7006 17.1235 78.9748 17.5682C79.3078 18.1059 79.7712 18.3747 80.3696 18.3747C80.9562 18.3747 81.4167 18.1016 81.7482 17.5539C82.0327 17.1006 82.175 16.563 82.175 15.9409Z" fill="white"/>
<path d="M95.2908 12.5777L93.1276 19.3185H91.7197L90.8236 16.3914C90.5962 15.6607 90.4114 14.9343 90.2677 14.2136H90.2398C90.1064 14.9543 89.9216 15.6793 89.684 16.3914L88.7322 19.3185H87.3081L85.2739 12.5777H86.8535L87.6352 15.7822C87.8243 16.5401 87.9798 17.2622 88.1045 17.9457H88.1323C88.2467 17.3823 88.4359 16.6645 88.7028 15.7965L89.684 12.5792H90.9365L91.8766 15.7279C92.1039 16.4958 92.2887 17.235 92.431 17.9472H92.4735C92.5776 17.2536 92.7345 16.5144 92.9428 15.7279L93.7817 12.5792H95.2908V12.5777Z" fill="white"/>
<path d="M103.259 19.3185H101.722V15.4577C101.722 14.2679 101.258 13.6731 100.329 13.6731C99.8726 13.6731 99.5044 13.8361 99.2185 14.1636C98.9354 14.491 98.7917 14.8771 98.7917 15.3189V19.3171H97.2547V14.5039C97.2547 13.9119 97.2356 13.2698 97.1989 12.5749H98.5497L98.6216 13.6288H98.6641C98.843 13.3013 99.1099 13.031 99.4604 12.8151C99.877 12.5635 100.343 12.4362 100.854 12.4362C101.499 12.4362 102.036 12.6392 102.463 13.0468C102.993 13.5458 103.259 14.2908 103.259 15.2803V19.3185V19.3185Z" fill="white"/>
<path d="M107.497 19.3185H105.962V9.48477H107.497V19.3185Z" fill="white"/>
<path d="M116.546 15.8923C116.546 16.929 116.243 17.7784 115.636 18.4448C114.999 19.1297 114.154 19.4715 113.103 19.4715C112.086 19.4715 111.278 19.144 110.677 18.4862C110.076 17.8299 109.775 17.002 109.775 16.0039C109.775 14.96 110.084 14.1035 110.706 13.4385C111.328 12.7736 112.164 12.4404 113.216 12.4404C114.232 12.4404 115.046 12.7679 115.665 13.4242C116.252 14.062 116.546 14.8856 116.546 15.8923ZM114.951 15.9409C114.951 15.3189 114.813 14.7855 114.539 14.3408C114.217 13.8032 113.757 13.5343 113.161 13.5343C112.543 13.5343 112.073 13.8032 111.752 14.3408C111.476 14.7855 111.34 15.3275 111.34 15.9681C111.34 16.5901 111.478 17.1235 111.752 17.5682C112.085 18.1059 112.548 18.3747 113.147 18.3747C113.733 18.3747 114.192 18.1016 114.524 17.5539C114.81 17.1006 114.951 16.563 114.951 15.9409Z" fill="white"/>
<path d="M123.985 19.3185H122.605L122.49 18.542H122.448C121.976 19.1612 121.303 19.4715 120.428 19.4715C119.776 19.4715 119.248 19.267 118.85 18.8609C118.49 18.492 118.309 18.0329 118.309 17.4881C118.309 16.6645 118.661 16.0367 119.37 15.602C120.076 15.1673 121.071 14.9543 122.351 14.9643V14.8385C122.351 13.9505 121.873 13.5072 120.915 13.5072C120.233 13.5072 119.632 13.6745 119.113 14.0062L118.801 13.0224C119.443 12.6349 120.236 12.4404 121.172 12.4404C122.979 12.4404 123.885 13.3699 123.885 15.2288V17.7112C123.885 18.3847 123.919 18.9209 123.985 19.3185ZM122.389 17.002V15.9624C120.694 15.9338 119.846 16.3871 119.846 17.3208C119.846 17.6726 119.943 17.9357 120.141 18.1116C120.339 18.2875 120.591 18.3747 120.892 18.3747C121.229 18.3747 121.545 18.2703 121.832 18.063C122.121 17.8542 122.298 17.5897 122.364 17.2651C122.38 17.1921 122.389 17.1035 122.389 17.002Z" fill="white"/>
<path d="M132.719 19.3185H131.355L131.283 18.236H131.24C130.805 19.0597 130.063 19.4715 129.02 19.4715C128.187 19.4715 127.493 19.1526 126.943 18.5148C126.393 17.8771 126.119 17.0492 126.119 16.0325C126.119 14.9414 126.417 14.0577 127.015 13.3828C127.594 12.7536 128.304 12.439 129.149 12.439C130.077 12.439 130.727 12.7436 131.097 13.3542H131.126V9.48477H132.664V17.5025C132.664 18.1588 132.682 18.7637 132.719 19.3185ZM131.126 16.4758V15.3518C131.126 15.1573 131.111 15.0001 131.083 14.8799C130.997 14.5196 130.811 14.2164 130.528 13.9719C130.242 13.7274 129.897 13.6044 129.499 13.6044C128.926 13.6044 128.477 13.8261 128.147 14.2708C127.82 14.7155 127.654 15.2832 127.654 15.9767C127.654 16.6431 127.811 17.1836 128.127 17.5997C128.46 18.043 128.908 18.2646 129.47 18.2646C129.975 18.2646 130.378 18.0801 130.684 17.7098C130.981 17.368 131.126 16.9562 131.126 16.4758Z" fill="white"/>
<path d="M145.864 15.8923C145.864 16.929 145.56 17.7784 144.953 18.4448C144.317 19.1297 143.475 19.4715 142.42 19.4715C141.407 19.4715 140.599 19.144 139.994 18.4862C139.393 17.8299 139.092 17.002 139.092 16.0039C139.092 14.96 139.402 14.1035 140.024 13.4385C140.646 12.7736 141.482 12.4404 142.536 12.4404C143.549 12.4404 144.366 12.7679 144.982 13.4242C145.569 14.062 145.864 14.8856 145.864 15.8923ZM144.271 15.9409C144.271 15.3189 144.133 14.7855 143.859 14.3408C143.535 13.8032 143.077 13.5343 142.479 13.5343C141.863 13.5343 141.394 13.8032 141.069 14.3408C140.794 14.7855 140.657 15.3275 140.657 15.9681C140.657 16.5901 140.795 17.1235 141.069 17.5682C141.402 18.1059 141.866 18.3747 142.464 18.3747C143.051 18.3747 143.513 18.1016 143.844 17.5539C144.127 17.1006 144.271 16.563 144.271 15.9409Z" fill="white"/>
<path d="M154.128 19.3185H152.593V15.4577C152.593 14.2679 152.129 13.6731 151.198 13.6731C150.742 13.6731 150.374 13.8361 150.089 14.1636C149.805 14.491 149.662 14.8771 149.662 15.3189V19.3171H148.124V14.5039C148.124 13.9119 148.106 13.2698 148.07 12.5749H149.419L149.491 13.6288H149.533C149.714 13.3013 149.981 13.031 150.33 12.8151C150.748 12.5635 151.213 12.4362 151.724 12.4362C152.368 12.4362 152.905 12.6392 153.332 13.0468C153.864 13.5458 154.128 14.2908 154.128 15.2803V19.3185V19.3185Z" fill="white"/>
<path d="M164.472 13.7002H162.78V16.9748C162.78 17.807 163.08 18.2231 163.676 18.2231C163.951 18.2231 164.18 18.2003 164.361 18.1531L164.4 19.2899C164.097 19.4014 163.698 19.4572 163.206 19.4572C162.599 19.4572 162.127 19.277 161.785 18.9167C161.442 18.5563 161.272 17.95 161.272 17.0992V13.7002H160.262V12.5777H161.272V11.3423L162.778 10.899V12.5763H164.471V13.7002H164.472Z" fill="white"/>
<path d="M172.609 19.3185H171.07V15.4862C171.07 14.2779 170.607 13.6731 169.679 13.6731C168.966 13.6731 168.479 14.0234 168.212 14.7241C168.166 14.8714 168.14 15.0515 168.14 15.2632V19.317H166.605V9.48477H168.14V13.5472H168.169C168.653 12.808 169.347 12.439 170.246 12.439C170.883 12.439 171.409 12.6421 171.827 13.0496C172.348 13.5572 172.609 14.3123 172.609 15.3104V19.3185V19.3185Z" fill="white"/>
<path d="M181.002 15.6292C181.002 15.8981 180.982 16.124 180.945 16.3085H176.336C176.356 16.9748 176.576 17.4824 177.003 17.8342C177.393 18.1488 177.896 18.3061 178.512 18.3061C179.194 18.3061 179.816 18.2003 180.376 17.9872L180.617 19.0282C179.961 19.3056 179.19 19.4443 178.296 19.4443C177.226 19.4443 176.382 19.1369 175.772 18.522C175.159 17.9071 174.856 17.0821 174.856 16.0468C174.856 15.0301 175.139 14.1836 175.709 13.5086C176.305 12.7879 177.11 12.4276 178.126 12.4276C179.121 12.4276 179.876 12.7879 180.386 13.5086C180.798 14.0806 181.002 14.7884 181.002 15.6292ZM179.536 15.2417C179.547 14.797 179.446 14.4138 179.238 14.0906C178.971 13.6745 178.565 13.4657 178.015 13.4657C177.513 13.4657 177.104 13.6688 176.792 14.0763C176.536 14.4009 176.385 14.7884 176.336 15.2417H179.536Z" fill="white"/>
</svg>
