<svg width="212" height="201" viewBox="0 0 212 201" fill="none" xmlns="http://www.w3.org/2000/svg">
<path d="M56.8618 176.057C64.8959 171.666 70.3666 163.796 75.0317 155.981C75.0634 155.93 75.105 155.887 75.1542 155.854C75.2033 155.82 75.2588 155.797 75.3172 155.787C75.3756 155.776 75.4356 155.777 75.4935 155.791C75.5513 155.804 75.6057 155.829 75.6533 155.865C75.7927 155.971 75.8942 156.119 75.943 156.287C75.9917 156.455 75.9851 156.634 75.924 156.798C73.3733 163.741 69.4378 170.093 64.3567 175.468C99.869 161.336 140.772 132.784 139.213 90.3238C129.526 95.8138 118.449 100.047 107.082 98.6168C100.464 98.002 94.1891 95.3899 89.0897 91.1271C76.5899 80.7799 75.5506 60.7086 88.2365 50.5962C111.258 32.2451 141.851 54.5468 146.612 82.2137C159.888 73.8866 172.084 63.7856 183.345 52.8856C183.405 52.8257 183.486 52.7918 183.571 52.7911C183.656 52.7904 183.738 52.823 183.799 52.8819C183.849 52.929 183.89 52.9855 183.919 53.0483C183.947 53.111 183.963 53.1788 183.966 53.2478C183.968 53.3168 183.957 53.3855 183.933 53.4502C183.909 53.5148 183.872 53.574 183.825 53.6245C172.779 65.4596 160.673 76.3383 147.219 85.4125C153.969 132.083 108.555 167.215 67.8445 176.572C74.0963 175.138 82.3773 180.56 85.358 184.492C85.4645 184.611 85.5205 184.767 85.514 184.926C85.5076 185.086 85.4393 185.237 85.3236 185.347C85.2103 185.439 85.0741 185.498 84.9295 185.519C84.785 185.54 84.6376 185.52 84.5031 185.464C76.2381 181.983 68.1116 181.04 57.9543 181.303C53.787 181.41 50.6896 179.433 56.8618 176.057ZM136.747 77.5641C131.326 58.0482 105.726 42.6964 91.3637 56.06C83.037 63.8013 82.718 77.0608 90.5258 85.3275C95.0719 90.1226 101.141 93.1917 107.697 94.0115C118.557 95.6379 129.331 91.6523 138.878 86.6591C138.459 83.5665 137.746 80.521 136.747 77.5641Z" fill="#1E20DC"/>
<path d="M98.6244 35.7681C100.86 35.4874 103.066 35.0098 105.217 34.3409C105.311 34.3116 105.393 34.252 105.45 34.1715C105.507 34.0909 105.535 33.9939 105.531 33.8955C105.527 33.797 105.49 33.7027 105.427 33.6272C105.364 33.5517 105.277 33.4992 105.181 33.4779C103.991 33.2484 102.767 33.2624 101.583 33.5189C100.399 33.7754 99.2787 34.2691 98.2904 34.9704C98.2118 35.0303 98.1554 35.1147 98.1298 35.2102C98.1043 35.3057 98.1112 35.407 98.1494 35.4982C98.1875 35.5894 98.2549 35.6654 98.3408 35.7142C98.4268 35.763 98.5265 35.782 98.6244 35.7681Z" fill="#1E20DC"/>
<path d="M111.303 34.123C122.233 36.2069 133.189 41.3593 141.383 50.3541C141.539 50.5509 141.818 50.3006 141.724 50.083C136.684 38.8334 122.726 32.3549 111.327 33.7043C111.281 33.7145 111.239 33.7396 111.208 33.7758C111.178 33.8119 111.159 33.8571 111.157 33.9045C111.154 33.9519 111.167 33.9989 111.193 34.0384C111.22 34.0778 111.258 34.1075 111.303 34.123Z" fill="#1E20DC"/>
<path d="M119.483 159.997C115.948 163.371 111.883 166.142 107.45 168.2C107.421 168.217 107.399 168.244 107.388 168.275C107.376 168.307 107.376 168.341 107.387 168.373C107.397 168.404 107.419 168.431 107.447 168.449C107.476 168.466 107.509 168.474 107.542 168.47C112.527 167.82 117.197 164.511 119.718 160.175C119.732 160.144 119.735 160.109 119.726 160.076C119.718 160.043 119.699 160.014 119.671 159.993C119.644 159.972 119.611 159.962 119.577 159.962C119.543 159.963 119.51 159.975 119.483 159.997Z" fill="#1E20DC"/>
</svg>
