<svg width="220" height="211" viewBox="0 0 220 211" fill="none" xmlns="http://www.w3.org/2000/svg">
<path d="M157.774 189.199C148.02 186.488 141.398 181.572 135.207 173.584C133.865 172.829 134.575 175.112 134.698 175.746C135.991 181.341 141.664 185.994 146.375 189.375C130.325 186.977 112.009 181.268 100.43 169.703C86.7483 156.572 79.9209 133.828 90.8263 117.099C102.557 121.16 116.326 122.92 128.062 117.89C142.552 109.992 135.057 94.1428 119.324 93.3737C106.563 92.7523 94.2975 99.4194 86.0802 109.033C41.5811 86.1119 43.2219 32.8557 80.1065 3.17748C80.1533 3.14275 80.1926 3.09884 80.2218 3.04843C80.2511 2.99802 80.2698 2.94217 80.2768 2.8843C80.2837 2.82642 80.2788 2.76774 80.2623 2.71183C80.2458 2.65592 80.2181 2.60396 80.1808 2.55913C80.1474 2.513 80.1051 2.474 80.0564 2.4444C80.0078 2.4148 79.9537 2.3952 79.8973 2.38674C79.841 2.37829 79.7835 2.38114 79.7283 2.39514C79.6731 2.40914 79.6212 2.43401 79.5757 2.46828C39.5687 31.9064 37.6523 88.1683 82.8924 113.519C75.0004 126.056 75.3152 142.426 81.4947 155.556C92.2769 179.219 121.042 191.99 146.097 191.952C144.055 193.708 141.412 194.631 139.369 196.372C136.979 198.412 134.365 203.553 136.551 203.065C138.876 201.155 141.344 199.426 143.933 197.894C146.524 196.299 149.5 194.578 152.16 193.107L152.673 192.839L157.833 190.066C157.916 190.024 157.985 189.959 158.031 189.879C158.077 189.798 158.098 189.706 158.092 189.613C158.085 189.52 158.052 189.431 157.995 189.358C157.939 189.284 157.862 189.229 157.774 189.199ZM109.469 102.721C125.104 95.8074 137.613 109.058 120.586 113.72C111.931 115.419 102.99 114.953 94.5589 112.364C98.7229 108.048 103.825 104.749 109.469 102.721Z" fill="#1E20DC"/>
<path d="M42.1396 61.9626C42.1977 61.9503 42.258 61.9527 42.3149 61.9697C42.3718 61.9867 42.4236 62.0177 42.4654 62.0599C42.5072 62.1021 42.5377 62.1542 42.5542 62.2113C42.5706 62.2683 42.5725 62.3287 42.5596 62.3866C40.277 72.9781 44.3682 85.1766 51.4049 91.726C51.4688 91.784 51.5081 91.8642 51.5149 91.9503C51.5217 92.0363 51.4954 92.1217 51.4413 92.189C51.3865 92.256 51.311 92.303 51.2267 92.3226C51.1423 92.3422 51.0539 92.3333 50.9751 92.2973C40.6718 87.5273 38.4732 72.3353 41.6527 62.4273C41.6883 62.3137 41.7538 62.2119 41.8424 62.1324C41.931 62.053 42.0394 61.9989 42.1561 61.9758L42.1396 61.9626Z" fill="#1E20DC"/>
<path d="M142.843 101.49C148.207 104.885 146.28 113.558 140.682 115.777C140.644 115.793 140.603 115.796 140.564 115.786C140.524 115.775 140.49 115.752 140.466 115.719C140.442 115.686 140.429 115.646 140.431 115.606C140.432 115.565 140.447 115.526 140.473 115.495C143.69 111.473 145.225 106.418 142.592 101.736C142.57 101.701 142.56 101.66 142.565 101.619C142.57 101.578 142.589 101.54 142.618 101.511C142.647 101.483 142.686 101.465 142.727 101.461C142.768 101.457 142.809 101.467 142.843 101.49Z" fill="#1E20DC"/>
<path d="M43.2272 58.6894C42.8079 58.41 42.508 57.984 42.3863 57.495C42.2856 57.1353 42.2956 56.7536 42.4151 56.3997C42.5316 56.0575 42.7492 55.7589 43.0391 55.5432C43.4314 55.2492 43.9048 55.0834 44.3948 55.0685C44.6679 55.4436 44.8615 55.8706 44.9637 56.3232C45.034 56.6274 45.0178 56.9452 44.9169 57.2406C44.816 57.536 44.6344 57.7972 44.3927 57.9948C44.0373 58.2778 43.6453 58.5115 43.2272 58.6894Z" fill="#1E20DC"/>
<path d="M138.035 117.962C138.058 117.942 138.087 117.93 138.117 117.927C138.147 117.924 138.177 117.931 138.203 117.947C138.23 117.962 138.25 117.986 138.262 118.014C138.274 118.041 138.276 118.072 138.269 118.102C138.203 118.418 138.072 118.717 137.885 118.981C137.63 119.336 137.31 119.639 136.941 119.873C136.574 120.106 136.164 120.264 135.735 120.338C135.417 120.398 135.091 120.39 134.776 120.317C134.748 120.309 134.723 120.293 134.704 120.271C134.685 120.249 134.673 120.222 134.669 120.193C134.666 120.164 134.671 120.135 134.684 120.108C134.697 120.082 134.717 120.061 134.742 120.046C135.017 119.914 135.259 119.781 135.5 119.649C135.827 119.47 136.137 119.277 136.447 119.084C136.757 118.892 137.058 118.692 137.368 118.466C137.585 118.314 137.801 118.154 138.035 117.962Z" fill="#1E20DC"/>
<path d="M100.136 161.205C105.261 167.941 114.758 174.974 123.111 176.632C123.13 176.633 123.149 176.642 123.161 176.657C123.174 176.672 123.181 176.691 123.18 176.711C123.178 176.73 123.169 176.749 123.154 176.761C123.14 176.774 123.12 176.781 123.101 176.78C114.457 177.18 103.399 169.116 100.012 161.283C100.006 161.267 100.005 161.249 100.011 161.233C100.016 161.216 100.027 161.202 100.042 161.193C100.056 161.184 100.074 161.18 100.091 161.182C100.108 161.185 100.124 161.193 100.136 161.205Z" fill="#1E20DC"/>
</svg>
