<svg width="49" height="49" viewBox="0 0 49 49" fill="none" xmlns="http://www.w3.org/2000/svg">
<path d="M44.1328 24.5C44.1328 13.4543 35.1784 4.5 24.1328 4.5C13.0871 4.5 4.13281 13.4543 4.13281 24.5C4.13281 35.5456 13.0871 44.5 24.1328 44.5" stroke="black" stroke-width="2" stroke-linecap="round"/>
<path d="M40.1328 11.898C38.2634 12.0327 35.869 12.7565 34.2086 14.9055C31.2098 18.7872 28.2108 19.1111 26.2116 17.8172C23.2126 15.8764 25.7328 12.7327 22.213 11.0243C19.9191 9.91084 19.5992 6.8809 20.876 4.5" stroke="black" stroke-width="2" stroke-linejoin="round"/>
<path d="M4.13281 22.5C5.65781 23.8242 7.79373 25.0364 10.3103 25.0364C15.5097 25.0364 16.5496 26.0298 16.5496 30.0036C16.5496 33.9774 16.5496 33.9774 17.5894 36.9576C18.2658 38.8962 18.5023 40.8348 17.154 42.5" stroke="black" stroke-width="2" stroke-linejoin="round"/>
<path d="M39.9304 40.3576L44.1328 44.5M42.3494 34.5918C42.3494 39.061 38.7192 42.6838 34.241 42.6838C29.763 42.6838 26.1328 39.061 26.1328 34.5918C26.1328 30.1228 29.763 26.5 34.241 26.5C38.7192 26.5 42.3494 30.1228 42.3494 34.5918Z" stroke="black" stroke-width="2" stroke-linecap="round"/>
</svg>
