<svg width="204" height="59" viewBox="0 0 204 59" fill="none" xmlns="http://www.w3.org/2000/svg">
<path d="M196.396 59H7.55371C3.40106 59 0 55.6794 0 51.625V7.375C0 3.32059 3.40106 7.56029e-07 7.55371 7.56029e-07H196.396C200.549 7.56029e-07 203.95 3.32059 203.95 7.375V51.625C203.95 55.6794 200.549 59 196.396 59Z" fill="#1E20DC"/>
<path d="M196.396 1.18184C199.894 1.18184 202.74 3.96037 202.74 7.375V51.625C202.74 55.0396 199.894 57.8182 196.396 57.8182H7.55371C4.05634 57.8182 1.21048 55.0396 1.21048 51.625V7.375C1.21048 3.96037 4.05634 1.18184 7.55371 1.18184H196.396ZM196.396 7.56029e-07H7.55371C3.40106 7.56029e-07 0 3.32059 0 7.375V51.625C0 55.6794 3.40106 59 7.55371 59H196.396C200.549 59 203.95 55.6794 203.95 51.625V7.375C203.95 3.32059 200.549 7.56029e-07 196.396 7.56029e-07Z" fill="#1E20DC"/>
<path d="M72.9594 15.8061C72.9594 16.9809 72.5992 17.9217 71.8895 18.6234C71.0735 19.4552 70.0108 19.8738 68.7085 19.8738C67.4639 19.8738 66.4011 19.4482 65.5293 18.6093C64.6557 17.7582 64.2198 16.7135 64.2198 15.4632C64.2198 14.2128 64.6557 13.1682 65.5293 12.324C66.4011 11.4782 67.4639 11.0526 68.7085 11.0526C69.3281 11.0526 69.9189 11.1774 70.4827 11.4096C71.0447 11.6435 71.5022 11.96 71.8336 12.3504L71.0807 13.0926C70.5025 12.426 69.7154 12.0972 68.7085 12.0972C67.8007 12.0972 67.0136 12.4067 66.3453 13.031C65.6842 13.6571 65.3528 14.4678 65.3528 15.4632C65.3528 16.4585 65.6842 17.2763 66.3453 17.9024C67.0136 18.5196 67.8007 18.8362 68.7085 18.8362C69.6722 18.8362 70.4827 18.5196 71.1222 17.8953C71.5436 17.4821 71.7832 16.9123 71.8463 16.1842H68.7085V15.1677H72.8946C72.945 15.3876 72.9594 15.6003 72.9594 15.8061V15.8061Z" fill="white" stroke="white" stroke-width="0.152612" stroke-miterlimit="10"/>
<path d="M79.6005 12.2818H75.6684V14.9549H79.2132V15.9714H75.6684V18.6445H79.6005V19.6803H74.5553V11.246H79.6005V12.2818Z" fill="white" stroke="white" stroke-width="0.152612" stroke-miterlimit="10"/>
<path d="M84.2873 19.6803H83.1741V12.2818H80.7623V11.246H86.7009V12.2818H84.2873V19.6803V19.6803Z" fill="white" stroke="white" stroke-width="0.152612" stroke-miterlimit="10"/>
<path d="M90.9987 19.6803V11.246H92.1101V19.6803H90.9987Z" fill="white" stroke="white" stroke-width="0.152612" stroke-miterlimit="10"/>
<path d="M97.0364 19.6803H95.9322V12.2818H93.5114V11.246H99.4572V12.2818H97.0364V19.6803Z" fill="white" stroke="white" stroke-width="0.152612" stroke-miterlimit="10"/>
<path d="M110.701 18.5953C109.849 19.4482 108.793 19.8738 107.534 19.8738C106.268 19.8738 105.212 19.4482 104.36 18.5953C103.51 17.7441 103.087 16.6995 103.087 15.4632C103.087 14.2269 103.51 13.1822 104.36 12.3311C105.212 11.4782 106.268 11.0526 107.534 11.0526C108.786 11.0526 109.841 11.4782 110.693 12.3381C111.551 13.1963 111.974 14.2339 111.974 15.4632C111.974 16.6995 111.551 17.7441 110.701 18.5953ZM105.183 17.8883C105.825 18.5196 106.605 18.8362 107.534 18.8362C108.456 18.8362 109.243 18.5196 109.877 17.8883C110.517 17.257 110.841 16.4462 110.841 15.4632C110.841 14.4801 110.517 13.6694 109.877 13.038C109.243 12.4067 108.456 12.0901 107.534 12.0901C106.605 12.0901 105.825 12.4067 105.183 13.038C104.544 13.6694 104.22 14.4801 104.22 15.4632C104.22 16.4462 104.544 17.257 105.183 17.8883V17.8883Z" fill="white" stroke="white" stroke-width="0.152612" stroke-miterlimit="10"/>
<path d="M113.536 19.6803V11.246H114.887L119.087 17.8056H119.136L119.087 16.1842V11.246H120.198V19.6803H119.038L114.64 12.7971H114.591L114.64 14.4256V19.6803H113.536V19.6803Z" fill="white" stroke="white" stroke-width="0.152612" stroke-miterlimit="10"/>
<path d="M102.813 31.9977C99.4284 31.9977 96.6635 34.5125 96.6635 37.9823C96.6635 41.4239 99.4284 43.9651 102.813 43.9651C106.205 43.9651 108.97 41.4239 108.97 37.9823C108.97 34.5125 106.205 31.9977 102.813 31.9977ZM102.813 41.6085C100.956 41.6085 99.3582 40.112 99.3582 37.9823C99.3582 35.8245 100.956 34.3542 102.813 34.3542C104.67 34.3542 106.275 35.8245 106.275 37.9823C106.275 40.112 104.67 41.6085 102.813 41.6085V41.6085ZM89.3956 31.9977C86.0039 31.9977 83.2462 34.5125 83.2462 37.9823C83.2462 41.4239 86.0039 43.9651 89.3956 43.9651C92.7855 43.9651 95.545 41.4239 95.545 37.9823C95.545 34.5125 92.7855 31.9977 89.3956 31.9977ZM89.3956 41.6085C87.5367 41.6085 85.9336 40.112 85.9336 37.9823C85.9336 35.8245 87.5367 34.3542 89.3956 34.3542C91.2526 34.3542 92.8503 35.8245 92.8503 37.9823C92.8503 40.112 91.2526 41.6085 89.3956 41.6085ZM73.4295 33.8319V36.3749H79.6491C79.4672 37.7959 78.9809 38.8405 78.2352 39.5685C77.3273 40.4478 75.9134 41.4239 73.4295 41.4239C69.6019 41.4239 66.6046 38.4079 66.6046 34.6708C66.6046 30.9337 69.6019 27.9177 73.4295 27.9177C75.4991 27.9177 77.0049 28.7073 78.1163 29.7309L79.9517 27.9388C78.3973 26.4897 76.3295 25.3765 73.4295 25.3765C68.1807 25.3765 63.7695 29.5462 63.7695 34.6708C63.7695 39.7954 68.1807 43.9651 73.4295 43.9651C76.2664 43.9651 78.3973 43.0576 80.0724 41.3553C81.789 39.6793 82.324 37.3228 82.324 35.42C82.324 34.8291 82.2735 34.2857 82.1835 33.8319H73.4295ZM138.717 35.8033C138.211 34.465 136.649 31.9977 133.468 31.9977C130.316 31.9977 127.691 34.4228 127.691 37.9823C127.691 41.3342 130.289 43.9651 133.771 43.9651C136.586 43.9651 138.211 42.2891 138.879 41.3131L136.789 39.9537C136.092 40.9491 135.143 41.6085 133.771 41.6085C132.407 41.6085 131.429 40.9983 130.802 39.7954L139 36.4839L138.717 35.8033V35.8033ZM130.359 37.7959C130.289 35.4886 132.195 34.3068 133.56 34.3068C134.63 34.3068 135.538 34.8291 135.84 35.5765L130.359 37.7959V37.7959ZM123.696 43.601H126.391V26.0149H123.696V43.601ZM119.283 33.3307H119.193C118.588 32.6308 117.434 31.9977 115.971 31.9977C112.902 31.9977 110.095 34.6286 110.095 38.0016C110.095 41.3553 112.902 43.9651 115.971 43.9651C117.434 43.9651 118.588 43.3267 119.193 42.6057H119.283V43.4639C119.283 45.7518 118.031 46.9811 116.012 46.9811C114.366 46.9811 113.345 45.8204 112.923 44.8444L110.58 45.7993C111.255 47.3856 113.044 49.3376 116.012 49.3376C119.172 49.3376 121.837 47.5228 121.837 43.1069V32.3617H119.283V33.3307V33.3307ZM116.201 41.6085C114.344 41.6085 112.79 40.0908 112.79 38.0016C112.79 35.893 114.344 34.3542 116.201 34.3542C118.032 34.3542 119.474 35.893 119.474 38.0016C119.474 40.0908 118.032 41.6085 116.201 41.6085V41.6085ZM151.333 26.0149H144.888V43.601H147.575V36.9377H151.333C154.317 36.9377 157.244 34.8291 157.244 31.4754C157.244 28.1235 154.31 26.0149 151.333 26.0149V26.0149ZM151.403 34.4914H147.575V28.4611H151.403C153.409 28.4611 154.555 30.0878 154.555 31.4754C154.555 32.8366 153.409 34.4914 151.403 34.4914ZM168.016 31.9643C166.074 31.9643 164.055 32.8014 163.224 34.6567L165.609 35.6328C166.123 34.6567 167.066 34.3402 168.064 34.3402C169.458 34.3402 170.872 35.1579 170.894 36.6018V36.7864C170.408 36.5121 169.367 36.1058 168.086 36.1058C165.517 36.1058 162.9 37.4863 162.9 40.0627C162.9 42.4193 165.004 43.9369 167.369 43.9369C169.177 43.9369 170.175 43.1403 170.802 42.2135H170.894V43.5729H173.49V36.8269C173.49 33.7088 171.105 31.9643 168.016 31.9643ZM167.691 41.6015C166.812 41.6015 165.588 41.1759 165.588 40.112C165.588 38.7508 167.115 38.2285 168.437 38.2285C169.62 38.2285 170.175 38.4835 170.894 38.8194C170.683 40.4478 169.248 41.6015 167.691 41.6015V41.6015ZM182.946 32.3494L179.857 39.973H179.765L176.571 32.3494H173.673L178.472 43.0031L175.734 48.9314H178.542L185.936 32.3494H182.946V32.3494ZM158.721 43.601H161.416V26.0149H158.721V43.601Z" fill="white"/>
<path d="M19.6683 12.0004C19.245 12.4331 19 13.1066 19 13.9789V45.0923C19 45.9646 19.245 46.6381 19.6683 47.0707L19.7727 47.1657L37.6301 29.7378V29.3263L19.7727 11.8984L19.6683 12.0004Z" fill="url(#paint0_linear_2_33)"/>
<path d="M43.5759 35.55L37.6301 29.7378V29.3263L43.5831 23.5141L43.7164 23.5897L50.7664 27.5061C52.7784 28.6176 52.7784 30.4465 50.7664 31.565L43.7164 35.4744L43.5759 35.55V35.55Z" fill="url(#paint1_linear_2_33)"/>
<path d="M43.7164 35.4744L37.6301 29.5321L19.6682 47.0708C20.3365 47.7566 21.4262 47.8393 22.6655 47.1534L43.7164 35.4744" fill="url(#paint2_linear_2_33)"/>
<path d="M43.7164 23.5897L22.6655 11.9108C21.4262 11.2319 20.3365 11.3146 19.6682 12.0005L37.6301 29.5321L43.7164 23.5897Z" fill="url(#paint3_linear_2_33)"/>
<defs>
<linearGradient id="paint0_linear_2_33" x1="36.0446" y1="45.4163" x2="12.4403" y2="21.2401" gradientUnits="userSpaceOnUse">
<stop stop-color="#00A0FF"/>
<stop offset="0.0066" stop-color="#00A1FF"/>
<stop offset="0.2601" stop-color="#00BEFF"/>
<stop offset="0.5122" stop-color="#00D2FF"/>
<stop offset="0.7604" stop-color="#00DFFF"/>
<stop offset="1" stop-color="#00E3FF"/>
</linearGradient>
<linearGradient id="paint1_linear_2_33" x1="53.3863" y1="29.5301" x2="18.519" y2="29.5301" gradientUnits="userSpaceOnUse">
<stop stop-color="#FFE000"/>
<stop offset="0.4087" stop-color="#FFBD00"/>
<stop offset="0.7754" stop-color="#FFA500"/>
<stop offset="1" stop-color="#FF9C00"/>
</linearGradient>
<linearGradient id="paint2_linear_2_33" x1="40.4068" y1="26.3017" x2="8.39754" y2="-6.4832" gradientUnits="userSpaceOnUse">
<stop stop-color="#FF3A44"/>
<stop offset="1" stop-color="#C31162"/>
</linearGradient>
<linearGradient id="paint3_linear_2_33" x1="15.1468" y1="57.422" x2="29.4404" y2="42.7822" gradientUnits="userSpaceOnUse">
<stop stop-color="#32A071"/>
<stop offset="0.0685" stop-color="#2DA771"/>
<stop offset="0.4762" stop-color="#15CF74"/>
<stop offset="0.8009" stop-color="#06E775"/>
<stop offset="1" stop-color="#00F076"/>
</linearGradient>
</defs>
</svg>
