<svg width="121" height="23" viewBox="0 0 121 23" fill="none" xmlns="http://www.w3.org/2000/svg">
<g clip-path="url(#clip0_396_23036)">
<g clip-path="url(#clip1_396_23036)">
<mask id="mask0_396_23036" style="mask-type:luminance" maskUnits="userSpaceOnUse" x="0" y="0" width="121" height="22">
<path d="M120.852 0.617188H0.851562V21.841H120.852V0.617188Z" fill="white"/>
</mask>
<g mask="url(#mask0_396_23036)">
<path d="M9.39501 21.841C6.9571 21.841 4.91832 21.017 3.27867 19.3694C1.6606 17.7217 0.851561 15.6837 0.851563 13.2555C0.851564 10.8272 1.6606 8.78923 3.27868 7.1415C4.91833 5.49378 6.95711 4.66992 9.39502 4.66992C10.97 4.66993 12.4047 5.04934 13.6991 5.80816C14.9936 6.56698 15.9752 7.58596 16.644 8.86512L13.0519 10.979C12.7283 10.3069 12.2321 9.7757 11.5633 9.38545C10.916 8.9952 10.1825 8.80007 9.36265 8.80007C8.11134 8.80007 7.07577 9.22284 6.25594 10.0684C5.43612 10.8923 5.02621 11.9546 5.0262 13.2555C5.0262 14.5346 5.43611 15.597 6.25594 16.4425C7.07576 17.2664 8.11133 17.6783 9.36264 17.6783C10.204 17.6783 10.9484 17.494 11.5956 17.1255C12.2644 16.7352 12.7606 16.204 13.0843 15.5319L16.7087 17.6133C15.9968 18.8924 14.9936 19.9222 13.6991 20.7027C12.4047 21.4616 10.97 21.841 9.39501 21.841Z" fill="black"/>
<path d="M45.7646 4.69836C47.5446 4.69836 49.0098 5.29218 50.1603 6.47982C51.3324 7.66745 51.9185 9.30855 51.9185 11.4031V21.3469H47.7182V11.9214C47.7182 10.8417 47.4252 10.0211 46.8391 9.45971C46.253 8.87668 45.4716 8.58517 44.4948 8.58517C43.4094 8.58517 42.5411 8.91987 41.8899 9.58926C41.2387 10.2587 40.9131 11.2628 40.9131 12.6016V21.3469H36.7129V5.15182H40.9131V6.96566C41.9334 5.45413 43.5505 4.69836 45.7646 4.69836Z" fill="black"/>
<path d="M63.853 9.16818H60.1737V15.9053C60.1737 16.4668 60.3148 16.877 60.5969 17.1362C60.8791 17.3953 61.2916 17.5464 61.8342 17.5896C62.3769 17.6112 63.0498 17.6004 63.853 17.5572V21.3469C60.966 21.6708 58.9255 21.4008 57.7316 20.5371C56.5595 19.6734 55.9734 18.1294 55.9734 15.9053V9.16818L53.1406 9.16817V5.1518H55.9734V1.8804L60.1737 0.617188V5.15181H63.853V9.16818Z" fill="black"/>
<path d="M71.2687 7.93732C71.6594 6.90084 72.2997 6.12348 73.1897 5.60524C74.1014 5.087 75.1108 4.82787 76.2178 4.82788V9.49205C74.9371 9.3409 73.7867 9.60002 72.7664 10.2694C71.7679 10.9388 71.2687 12.0509 71.2687 13.6056V21.3468H67.0684V5.15177H71.2687V7.93732Z" fill="black"/>
<path fill-rule="evenodd" clip-rule="evenodd" d="M94.1075 5.15182H90.0143V7.06284C88.7554 5.48652 86.9862 4.69836 84.707 4.69836C82.5363 4.69836 80.6695 5.5297 79.1067 7.19239C77.5655 8.83349 76.7949 10.8525 76.7949 13.2494C76.7949 15.6462 77.5655 17.676 79.1066 19.3387C80.6695 20.9798 82.5363 21.8003 84.707 21.8003C86.9862 21.8003 88.7553 21.0122 90.0143 19.4359V21.3469H94.1075V5.15182ZM81.9544 16.6116C82.8092 17.4671 83.8942 17.8949 85.2093 17.8949C86.5244 17.8949 87.6094 17.4671 88.4642 16.6116C89.341 15.7342 89.7793 14.6155 89.7793 13.2555C89.7793 11.8955 89.341 10.7878 88.4642 9.93226C87.6094 9.05484 86.5244 8.61612 85.2093 8.61612C83.8942 8.61612 82.8092 9.05483 81.9544 9.93226C81.0996 10.7878 80.6722 11.8955 80.6722 13.2555C80.6722 14.6155 81.0996 15.7342 81.9544 16.6116Z" fill="black"/>
<path d="M100.915 9.75121C100.915 10.1831 101.197 10.5394 101.761 10.8201C102.348 11.0792 103.053 11.3167 103.878 11.5327C104.703 11.727 105.528 11.9861 106.352 12.31C107.177 12.6124 107.872 13.1306 108.436 13.8648C109.022 14.5989 109.315 15.5167 109.315 16.6179C109.315 18.2806 108.686 19.5654 107.427 20.4724C106.19 21.3577 104.638 21.8003 102.771 21.8003C99.4284 21.8003 97.1492 20.5155 95.9336 17.9459L99.5803 15.9053C100.058 17.3089 101.121 18.0107 102.771 18.0107C104.269 18.0107 105.017 17.5464 105.017 16.6179C105.017 16.1861 104.724 15.8406 104.138 15.5814C103.574 15.3007 102.879 15.0524 102.055 14.8365C101.23 14.6205 100.405 14.3506 99.5803 14.0267C98.7555 13.7028 98.05 13.1954 97.4639 12.5044C96.8995 11.7918 96.6174 10.9065 96.6174 9.84838C96.6174 8.25047 97.2034 6.99805 98.3756 6.09113C99.5695 5.16261 101.045 4.69836 102.803 4.69836C104.128 4.69836 105.332 5.00067 106.418 5.60528C107.503 6.1883 108.36 7.03045 108.99 8.13171L105.408 10.0751C104.887 8.97385 104.019 8.42322 102.803 8.42322C102.261 8.42322 101.805 8.54198 101.436 8.77951C101.089 9.01704 100.915 9.34094 100.915 9.75121Z" fill="black"/>
<path d="M120.851 9.16818H117.172V15.9053C117.172 16.4668 117.313 16.877 117.595 17.1362C117.877 17.3953 118.29 17.5464 118.832 17.5896C119.375 17.6112 120.048 17.6004 120.851 17.5572V21.3469C117.964 21.6708 115.924 21.4008 114.73 20.5371C113.558 19.6734 112.971 18.1294 112.971 15.9053V9.16818L110.139 9.16817V5.1518H112.971V1.8804L117.172 0.617188V5.15181H120.851V9.16818Z" fill="black"/>
<path fill-rule="evenodd" clip-rule="evenodd" d="M34.8165 13.2555C34.8165 8.51379 30.9549 4.66992 26.1915 4.66992C21.428 4.66992 17.5664 8.51379 17.5664 13.2555C17.5664 17.9971 21.428 21.841 26.1915 21.841C30.9549 21.841 34.8165 17.9971 34.8165 13.2555ZM31.3032 13.2555C31.3032 16.0656 29.0146 18.3438 26.1915 18.3438C24.6 18.3438 23.1785 17.6198 22.241 16.4848L29.4357 9.32306C30.5759 10.2563 31.3032 11.6713 31.3032 13.2555Z" fill="black"/>
</g>
</g>
</g>
<defs>
<clipPath id="clip0_396_23036">
<rect width="120" height="22" fill="white" transform="translate(0.851562 0.617188)"/>
</clipPath>
<clipPath id="clip1_396_23036">
<rect width="120" height="22" fill="white" transform="translate(0.851562 0.617188)"/>
</clipPath>
</defs>
</svg>
