<svg width="49" height="48" viewBox="0 0 49 48" fill="none" xmlns="http://www.w3.org/2000/svg">
<path d="M15.1328 24H27.1328M15.1328 16H21.1328" stroke="black" stroke-width="2" stroke-linecap="round" stroke-linejoin="round"/>
<path d="M17.1328 40C19.2336 41.7394 21.7618 42.8476 24.6598 43.0376C26.9432 43.1874 29.327 43.1872 31.6058 43.0376C32.3904 42.9862 33.2458 42.8014 33.9824 42.502C34.8018 42.169 35.2118 42.0024 35.4202 42.0276C35.6284 42.0528 35.9306 42.2728 36.535 42.7126C37.6006 43.488 38.943 44.045 40.9338 43.9972C41.9404 43.973 42.4438 43.9608 42.669 43.5818C42.8944 43.2026 42.6138 42.6778 42.0524 41.6282C41.274 40.1724 40.7808 38.5058 41.5282 37.1704C42.8154 35.263 43.9086 33.0042 44.0684 30.5646C44.1542 29.2538 44.1542 27.8962 44.0684 26.5854C43.962 24.9598 43.5674 23.4146 42.9352 22" stroke="black" stroke-width="2" stroke-linecap="round" stroke-linejoin="round"/>
<path d="M24.8228 34.9736C31.934 34.5052 37.5984 28.8138 38.0644 21.6688C38.1556 20.2706 38.1556 18.8226 38.0644 17.4244C37.5984 10.2794 31.934 4.58802 24.8228 4.1197C22.3968 3.95994 19.8639 3.96026 17.4428 4.1197C10.3317 4.58802 4.66731 10.2794 4.20121 17.4244C4.11001 18.8226 4.11001 20.2706 4.20121 21.6688C4.37097 24.2712 5.53265 26.6806 6.90025 28.7152C7.69433 30.1394 7.17027 31.9172 6.34317 33.47C5.74681 34.5896 5.44863 35.1494 5.68805 35.5538C5.92745 35.9582 6.46225 35.9712 7.53183 35.997C9.64705 36.048 11.0734 35.4538 12.2056 34.6268C12.8477 34.1576 13.1688 33.923 13.3901 33.8962C13.6113 33.8692 14.0468 34.0468 14.9176 34.4022C15.7003 34.7216 16.6091 34.9186 17.4428 34.9736C19.8639 35.133 22.3968 35.1332 24.8228 34.9736Z" stroke="black" stroke-width="2" stroke-linejoin="round"/>
</svg>
